<svg width="52" height="42" viewBox="0 0 52 42" fill="none" xmlns="http://www.w3.org/2000/svg">
<path d="M10 27.4091H2M2 40.1137H34C36.4853 40.1137 37.728 40.1137 38.7067 39.7919C39.3542 39.579 39.9425 39.2669 40.4381 38.8735C40.9336 38.48 41.3266 38.0128 41.5947 37.4987C42 36.7216 42 35.7349 42 33.7614C42 31.788 42 30.8013 41.5947 30.0242C41.3266 29.51 40.9336 29.0428 40.4381 28.6494C39.9425 28.2559 39.3542 27.9438 38.7067 27.731C37.728 27.4091 36.4853 27.4091 34 27.4091H28.6667H42C44.4853 27.4091 45.728 27.4091 46.7067 27.0873C47.3542 26.8745 47.9425 26.5624 48.4381 26.1689C48.9336 25.7754 49.3266 25.3083 49.5947 24.7941C50 24.017 50 23.0303 50 21.0569C50 19.0834 50 18.0967 49.5947 17.3196C49.3266 16.8054 48.9336 16.3383 48.4381 15.9448C47.9425 15.5513 47.3542 15.2392 46.7067 15.0264C45.728 14.7046 44.4853 14.7046 42 14.7046H2H31.3333C33.8187 14.7046 35.0613 14.7046 36.04 14.3827C36.6875 14.1699 37.2759 13.8578 37.7714 13.4643C38.2669 13.0709 38.66 12.6037 38.928 12.0895C39.3333 11.3124 39.3333 10.3257 39.3333 8.35228C39.3333 6.37884 39.3333 5.39212 38.928 4.61502C38.66 4.10087 38.2669 3.6337 37.7714 3.24023C37.2759 2.84675 36.6875 2.53468 36.04 2.32185C35.0613 2 33.8187 2 31.3333 2H2" stroke="#23ADB4" stroke-width="3" stroke-linecap="round" stroke-linejoin="round"/>
<path d="M28.6666 14.7041V27.811C28.6666 30.1719 28.6666 31.3513 27.7973 31.6012C26.9253 31.8553 25.9413 30.9575 23.976 29.1661L22.6906 27.9973C21.7493 27.1398 21.28 26.712 20.6666 26.712C20.0533 26.712 19.584 27.1398 18.64 27.9973L17.36 29.1661C15.392 30.9575 14.408 31.8553 13.5386 31.6012C12.6666 31.3513 12.6666 30.1719 12.6666 27.811V14.7041" stroke="#23ADB4" stroke-width="3" stroke-linecap="round" stroke-linejoin="round"/>
</svg>
