<svg width="45" height="49" viewBox="0 0 45 49" fill="none" xmlns="http://www.w3.org/2000/svg">
<path fill-rule="evenodd" clip-rule="evenodd" d="M0 0H38.7504V6.80501H36.2503V2.722H2.50002V34.025H29.234V36.747H0V0ZM37.5003 17.693C38.4949 17.693 39.4488 17.2629 40.152 16.4971C40.8553 15.7314 41.2504 14.6929 41.2504 13.61C41.2504 12.5271 40.8553 11.4886 40.152 10.7229C39.4488 9.95718 38.4949 9.52701 37.5003 9.52701C36.5058 9.52701 35.5519 9.95718 34.8487 10.7229C34.1454 11.4886 33.7503 12.5271 33.7503 13.61C33.7503 14.6929 34.1454 15.7314 34.8487 16.4971C35.5519 17.2629 36.5058 17.693 37.5003 17.693ZM40.0391 20.4286C41.6629 20.4286 42.9479 21.2235 43.7892 22.4511C44.5754 23.6011 44.9079 25.0234 44.9829 26.3367C45.0572 27.684 44.8886 29.0341 44.4867 30.3109C44.1117 31.4949 43.4779 32.7198 42.5004 33.5596V46.9546C42.5013 47.4675 42.3248 47.962 42.0061 48.3397C41.6874 48.7174 41.2497 48.9506 40.7803 48.993C40.3108 49.0354 39.8438 48.8838 39.4723 48.5684C39.1009 48.2529 38.852 47.7968 38.7754 47.2907L37.1628 36.747H36.7903L34.9678 47.3302C34.8813 47.8297 34.6267 48.2761 34.2539 48.582C33.8811 48.888 33.4169 49.0315 32.952 48.9845C32.4872 48.9375 32.0552 48.7035 31.7404 48.328C31.4257 47.9526 31.2509 47.4629 31.2503 46.9546V27.5372C31.0003 27.9517 30.7536 28.3687 30.5103 28.7879L30.4128 28.9553L30.3878 28.9989L30.3815 29.0111C30.2131 29.3056 29.9784 29.5485 29.6998 29.7169C29.4211 29.8853 29.1077 29.9735 28.789 29.9733H22.539C22.0417 29.9733 21.5648 29.7583 21.2131 29.3754C20.8615 28.9925 20.6639 28.4733 20.6639 27.9318C20.6639 27.3904 20.8615 26.8711 21.2131 26.4883C21.5648 26.1054 22.0417 25.8903 22.539 25.8903H27.7603C28.064 25.3786 28.464 24.7144 28.884 24.0475C29.3215 23.3521 29.804 22.6158 30.234 22.0387C30.4428 21.757 30.6765 21.463 30.9115 21.2221C31.0265 21.1037 31.1865 20.9499 31.3815 20.8138C31.7251 20.5664 32.1272 20.4331 32.539 20.43L40.0391 20.4286Z" fill="#23ADB4"/>
</svg>
