<svg width="50" height="40" viewBox="0 0 50 40" fill="none" xmlns="http://www.w3.org/2000/svg">
<path d="M19.4445 9.92509C19.4445 9.6326 19.5908 9.3521 19.8513 9.14528C20.1117 8.93846 20.465 8.82227 20.8333 8.82227H31.9445C32.3128 8.82227 32.6661 8.93846 32.9266 9.14528C33.187 9.3521 33.3333 9.6326 33.3333 9.92509C33.3333 10.2176 33.187 10.4981 32.9266 10.7049C32.6661 10.9117 32.3128 11.0279 31.9445 11.0279H20.8333C20.465 11.0279 20.1117 10.9117 19.8513 10.7049C19.5908 10.4981 19.4445 10.2176 19.4445 9.92509ZM20.8333 13.2336C20.465 13.2336 20.1117 13.3498 19.8513 13.5566C19.5908 13.7634 19.4445 14.0439 19.4445 14.3364C19.4445 14.6289 19.5908 14.9094 19.8513 15.1162C20.1117 15.323 20.465 15.4392 20.8333 15.4392H31.9445C32.3128 15.4392 32.6661 15.323 32.9266 15.1162C33.187 14.9094 33.3333 14.6289 33.3333 14.3364C33.3333 14.0439 33.187 13.7634 32.9266 13.5566C32.6661 13.3498 32.3128 13.2336 31.9445 13.2336H20.8333ZM19.4445 24.2618C19.4445 23.9694 19.5908 23.6888 19.8513 23.482C20.1117 23.2752 20.465 23.159 20.8333 23.159H31.9445C32.3128 23.159 32.6661 23.2752 32.9266 23.482C33.187 23.6888 33.3333 23.9694 33.3333 24.2618C33.3333 24.5543 33.187 24.8348 32.9266 25.0417C32.6661 25.2485 32.3128 25.3647 31.9445 25.3647H20.8333C20.465 25.3647 20.1117 25.2485 19.8513 25.0417C19.5908 24.8348 19.4445 24.5543 19.4445 24.2618ZM20.8333 27.5703C20.465 27.5703 20.1117 27.6865 19.8513 27.8933C19.5908 28.1002 19.4445 28.3807 19.4445 28.6731C19.4445 28.9656 19.5908 29.2461 19.8513 29.453C20.1117 29.6598 20.465 29.776 20.8333 29.776H31.9445C32.3128 29.776 32.6661 29.6598 32.9266 29.453C33.187 29.2461 33.3333 28.9656 33.3333 28.6731C33.3333 28.3807 33.187 28.1002 32.9266 27.8933C32.6661 27.6865 32.3128 27.5703 31.9445 27.5703H20.8333Z" fill="#23ADB4"/>
<path fill-rule="evenodd" clip-rule="evenodd" d="M5.55554 23.1595C5.55554 22.867 5.70187 22.5865 5.96234 22.3797C6.22281 22.1728 6.57607 22.0566 6.94443 22.0566H13.8889C14.2572 22.0566 14.6105 22.1728 14.871 22.3797C15.1314 22.5865 15.2778 22.867 15.2778 23.1595V28.6736C15.2778 28.9661 15.1314 29.2466 14.871 29.4534C14.6105 29.6602 14.2572 29.7764 13.8889 29.7764H6.94443C6.57607 29.7764 6.22281 29.6602 5.96234 29.4534C5.70187 29.2466 5.55554 28.9661 5.55554 28.6736V23.1595ZM8.33332 24.2623V27.5708H12.5V24.2623H8.33332Z" fill="#23ADB4"/>
<path d="M16.2597 10.7054C16.5127 10.4974 16.6527 10.2188 16.6496 9.92967C16.6464 9.64051 16.5003 9.36391 16.2428 9.15944C15.9853 8.95496 15.637 8.83898 15.2728 8.83647C14.9086 8.83395 14.5578 8.94511 14.2958 9.146L9.72223 12.7776L7.9264 11.3517C7.66445 11.1508 7.31361 11.0396 6.94945 11.0421C6.58529 11.0446 6.23694 11.1606 5.97943 11.3651C5.72192 11.5696 5.57585 11.8462 5.57268 12.1353C5.56952 12.4245 5.70951 12.7031 5.96251 12.9111L9.72223 15.8964L16.2597 10.7054Z" fill="#23ADB4"/>
<path fill-rule="evenodd" clip-rule="evenodd" d="M5.55556 0C4.08213 0 2.66905 0.464761 1.62718 1.29204C0.585316 2.11932 0 3.24136 0 4.41131V35.2905C0 36.4604 0.585316 37.5824 1.62718 38.4097C2.66905 39.237 4.08213 39.7018 5.55556 39.7018H33.3333C34.8068 39.7018 36.2198 39.237 37.2617 38.4097C38.3036 37.5824 38.8889 36.4604 38.8889 35.2905V4.41131C38.8889 3.24136 38.3036 2.11932 37.2617 1.29204C36.2198 0.464761 34.8068 0 33.3333 0H5.55556ZM2.77778 4.41131C2.77778 3.82633 3.07044 3.26532 3.59137 2.85168C4.1123 2.43804 4.81884 2.20565 5.55556 2.20565H33.3333C34.07 2.20565 34.7766 2.43804 35.2975 2.85168C35.8185 3.26532 36.1111 3.82633 36.1111 4.41131V35.2905C36.1111 35.8754 35.8185 36.4365 35.2975 36.8501C34.7766 37.2637 34.07 37.4961 33.3333 37.4961H5.55556C4.81884 37.4961 4.1123 37.2637 3.59137 36.8501C3.07044 36.4365 2.77778 35.8754 2.77778 35.2905V4.41131ZM41.6667 11.0283C41.6667 10.1508 42.1057 9.30928 42.8871 8.68882C43.6685 8.06836 44.7283 7.71979 45.8333 7.71979C46.9384 7.71979 47.9982 8.06836 48.7796 8.68882C49.561 9.30928 50 10.1508 50 11.0283V33.419L45.8333 38.3817L41.6667 33.419V11.0283ZM45.8333 9.92544C45.465 9.92544 45.1117 10.0416 44.8512 10.2485C44.5908 10.4553 44.4444 10.7358 44.4444 11.0283V13.2339H47.2222V11.0283C47.2222 10.7358 47.0759 10.4553 46.8154 10.2485C46.555 10.0416 46.2017 9.92544 45.8333 9.92544ZM45.8333 34.4049L44.4444 32.7507V15.4396H47.2222V32.7507L45.8333 34.4049Z" fill="#23ADB4"/>
</svg>
