<svg width="20" height="20" viewBox="0 0 20 20" fill="none" xmlns="http://www.w3.org/2000/svg">
<path d="M2.5 17.7143H6.25V12C6.25 11.6762 6.37 11.4049 6.61 11.1863C6.85 10.9676 7.14667 10.8579 7.5 10.8571H12.5C12.8542 10.8571 13.1512 10.9669 13.3912 11.1863C13.6312 11.4057 13.7508 11.6769 13.75 12V17.7143H17.5V7.42857L10 2.28571L2.5 7.42857V17.7143ZM0 17.7143V7.42857C0 7.06666 0.0887498 6.72381 0.26625 6.4C0.44375 6.07619 0.688333 5.80952 1 5.6L8.5 0.457143C8.9375 0.152381 9.4375 0 10 0C10.5625 0 11.0625 0.152381 11.5 0.457143L19 5.6C19.3125 5.80952 19.5575 6.07619 19.735 6.4C19.9125 6.72381 20.0008 7.06666 20 7.42857V17.7143C20 18.3429 19.755 18.8811 19.265 19.3291C18.775 19.7771 18.1867 20.0008 17.5 20H12.5C12.1458 20 11.8492 19.8903 11.61 19.6709C11.3708 19.4514 11.2508 19.1802 11.25 18.8571V13.1429H8.75V18.8571C8.75 19.1809 8.63 19.4526 8.39 19.672C8.15 19.8914 7.85333 20.0008 7.5 20H2.5C1.8125 20 1.22417 19.7764 0.735 19.3291C0.245833 18.8819 0.000833333 18.3436 0 17.7143Z" fill="#0B99A0"/>
</svg>
