<svg width="24" height="24" viewBox="0 0 24 24" fill="none" xmlns="http://www.w3.org/2000/svg">
<path d="M6.448 8.96964C6.59947 7.60307 7.24963 6.34036 8.27402 5.42324C9.29841 4.50612 10.6251 3.99902 12 3.99902C13.375 3.99902 14.7016 4.50612 15.726 5.42324C16.7504 6.34036 17.4005 7.60307 17.552 8.96964L17.804 11.2356L17.81 11.2926C17.9391 12.4167 18.3052 13.5005 18.884 14.4726L18.914 14.5226L19.491 15.4856C20.016 16.3596 20.278 16.7966 20.221 17.1556C20.1834 17.3939 20.0608 17.6106 19.876 17.7656C19.597 17.9996 19.087 17.9996 18.068 17.9996H5.932C4.912 17.9996 4.402 17.9996 4.124 17.7666C3.93861 17.6115 3.81569 17.3944 3.778 17.1556C3.722 16.7966 3.984 16.3596 4.508 15.4856L5.087 14.5216L5.117 14.4716C5.69536 13.4997 6.06107 12.4162 6.19 11.2926L6.196 11.2356L6.448 8.96964Z" stroke="white"/>
<path d="M9.10201 18.4053C9.27301 19.1493 9.65 19.8073 10.174 20.2753C10.698 20.7453 11.34 20.9993 12 20.9993C12.66 20.9993 13.302 20.7453 13.826 20.2763C14.35 19.8063 14.726 19.1493 14.898 18.4053" stroke="white" stroke-linecap="round"/>
</svg>
