<svg width="35" height="46" viewBox="0 0 35 46" fill="none" xmlns="http://www.w3.org/2000/svg">
<path d="M11.3755 36.375C11.3755 33.6875 9.68797 31.3521 7.62547 29.6313C5.15776 27.576 3.38329 24.8103 2.54358 21.7105C1.70386 18.6107 1.8397 15.3275 2.9326 12.3077C4.02549 9.28787 6.02236 6.67817 8.65141 4.83378C11.2805 2.98939 14.414 1.9999 17.6255 2C20.8365 2.00042 23.9694 2.9901 26.5979 4.83439C29.2264 6.67868 31.2229 9.28801 32.3157 12.3073C33.4085 15.3267 33.5446 18.6093 32.7053 21.7087C31.8661 24.8081 30.0924 27.5737 27.6255 29.6292C25.563 31.3521 23.8755 33.6875 23.8755 36.375M11.3755 36.375H23.8755M11.3755 36.375V40.5417C11.3755 41.3705 11.7047 42.1653 12.2908 42.7514C12.8768 43.3374 13.6717 43.6667 14.5005 43.6667H20.7505C21.5793 43.6667 22.3741 43.3374 22.9602 42.7514C23.5462 42.1653 23.8755 41.3705 23.8755 40.5417V36.375" stroke="#0B99A0" stroke-width="3" stroke-linecap="round" stroke-linejoin="round"/>
<path d="M13.4588 14.4997C13.4588 12.3893 15.3234 10.333 17.6255 10.333C19.9276 10.333 21.7921 12.0413 21.7921 14.1518C21.7921 14.9122 21.5505 15.6205 21.1317 16.2163C19.8859 17.9913 17.6255 19.683 17.6255 21.7913M17.6088 26.9997H17.6276" stroke="#0B99A0" stroke-width="3" stroke-linecap="round" stroke-linejoin="round"/>
</svg>
