<svg width="50" height="50" viewBox="0 0 50 50" fill="none" xmlns="http://www.w3.org/2000/svg">
<path d="M46.4063 30.1562L41.7188 25.4687C41.0938 24.8437 40.1562 24.8437 39.5312 25.4687L25 40V46.875H31.875L46.4063 32.3438C47.0313 31.7188 47.0313 30.7812 46.4063 30.1562ZM30.625 43.75H28.125V41.25L35.9375 33.4375L38.4375 35.9375L30.625 43.75ZM40.625 33.75L38.125 31.25L40.625 28.75L43.125 31.25L40.625 33.75ZM15.625 35.9375H18.75V39.0625H15.625V35.9375ZM21.875 28.125H28.125V31.25H21.875V28.125ZM15.625 28.125H18.75V31.25H15.625V28.125ZM21.875 20.3125H34.375V23.4375H21.875V20.3125ZM15.625 20.3125H18.75V23.4375H15.625V20.3125Z" fill="#23ADB4"/>
<path d="M10.9375 43.75V10.9375H15.625V15.625H34.375V10.9375H39.0625V20.3125H42.1875V10.9375C42.1875 9.21875 40.7812 7.8125 39.0625 7.8125H34.375V6.25C34.375 4.53125 32.9688 3.125 31.25 3.125H18.75C17.0312 3.125 15.625 4.53125 15.625 6.25V7.8125H10.9375C9.21875 7.8125 7.8125 9.21875 7.8125 10.9375V43.75C7.8125 45.4688 9.21875 46.875 10.9375 46.875H18.75V43.75H10.9375ZM18.75 6.25H31.25V12.5H18.75V6.25Z" fill="#23ADB4"/>
</svg>
