<svg width="54" height="44" viewBox="0 0 54 44" fill="none" xmlns="http://www.w3.org/2000/svg">
<path d="M3.24998 7.00002L16.9996 2L30.7493 7.00002L24.4995 10.75V14.5C24.4995 14.5 22.832 13.25 16.9996 13.25C11.1673 13.25 9.49983 14.5 9.49983 14.5V10.75L3.24998 7.00002ZM3.24998 7.00002V17" stroke="#23ADB4" stroke-width="3" stroke-linecap="round" stroke-linejoin="round"/>
<path d="M24.4995 13.25V15.4725C24.4995 19.7675 21.142 23.25 16.9996 23.25C12.8572 23.25 9.49982 19.7675 9.49982 15.4725V13.25M35.2942 19.575C35.2942 19.575 36.5067 18.6925 40.7491 18.6925C44.9915 18.6925 46.2039 19.5725 46.2039 19.5725M35.2942 19.575V17L30.7493 14.5L40.7491 10.75L50.7488 14.5L46.2039 17V19.5725M35.2942 19.575V20.295C35.2942 21.7418 35.8689 23.1293 36.8919 24.1523C37.9149 25.1753 39.3023 25.75 40.7491 25.75C42.1958 25.75 43.5833 25.1753 44.6062 24.1523C45.6292 23.1293 46.2039 21.7418 46.2039 20.295V19.5725M36.9991 42.0001H46.2614C48.1939 42.0001 49.7288 41.0601 51.1088 39.7451C53.9337 37.0551 49.2964 34.9051 47.5289 33.8526C45.9571 32.9248 44.2117 32.3292 42.4006 32.1026C40.5895 31.876 38.7511 32.0232 36.9991 32.5351M7.96235 31.8151C5.60491 33.1326 -0.57744 35.8201 3.18747 39.1826C5.02742 40.8251 7.07487 42.0001 9.65231 42.0001H24.347C26.9219 42.0001 28.9718 40.8251 30.8118 39.1826C34.5767 35.8201 28.3944 33.1326 26.0369 31.8151C20.507 28.7276 13.4922 28.7276 7.96235 31.8151Z" stroke="#23ADB4" stroke-width="3" stroke-linecap="round" stroke-linejoin="round"/>
</svg>
