<svg width="50" height="40" viewBox="0 0 50 40" fill="none" xmlns="http://www.w3.org/2000/svg">
<path d="M46.5686 0H3.43137C2.52132 0 1.64853 0.340465 1.00503 0.946496C0.361519 1.55253 0 2.37448 0 3.23154V36.4702C0 37.3273 0.361519 38.1492 1.00503 38.7553C1.64853 39.3613 2.52132 39.7018 3.43137 39.7018H6.71324C6.99152 39.7017 7.26407 39.6273 7.49922 39.4871C7.73437 39.347 7.92247 39.1469 8.04167 38.91C9.03473 36.9349 10.6028 35.2659 12.5636 34.0972C14.5243 32.9284 16.7972 32.308 19.1176 32.308C21.4381 32.308 23.7109 32.9284 25.6717 34.0972C27.6325 35.2659 29.2006 36.9349 30.1936 38.91C30.3128 39.1469 30.5009 39.347 30.7361 39.4871C30.9712 39.6273 31.2438 39.7017 31.5221 39.7018H46.5686C47.4787 39.7018 48.3515 39.3613 48.995 38.7553C49.6385 38.1492 50 37.3273 50 36.4702V3.23154C50 2.37448 49.6385 1.55253 48.995 0.946496C48.3515 0.340465 47.4787 0 46.5686 0ZM12.7451 23.5441C12.7451 22.3571 13.1188 21.1968 13.8191 20.2099C14.5193 19.2229 15.5145 18.4537 16.679 17.9995C17.8434 17.5452 19.1247 17.4264 20.3609 17.658C21.597 17.8895 22.7325 18.4611 23.6237 19.3004C24.5149 20.1397 25.1219 21.2091 25.3677 22.3733C25.6136 23.5374 25.4874 24.7441 25.0051 25.8407C24.5228 26.9373 23.706 27.8746 22.658 28.5341C21.6101 29.1935 20.378 29.5455 19.1176 29.5455C17.4275 29.5455 15.8067 28.9132 14.6116 27.7877C13.4165 26.6622 12.7451 25.1358 12.7451 23.5441ZM47.0588 36.4702C47.0588 36.5927 47.0072 36.7101 46.9152 36.7967C46.8233 36.8832 46.6986 36.9319 46.5686 36.9319H32.4191C30.7044 34.0333 27.9786 31.7819 24.7034 30.5588C26.2679 29.4546 27.4236 27.9147 28.007 26.1574C28.5904 24.4001 28.5718 22.5145 27.9539 20.7677C27.336 19.0209 26.15 17.5015 24.5641 16.4248C22.9782 15.3481 21.0727 14.7687 19.1176 14.7687C17.1626 14.7687 15.2571 15.3481 13.6712 16.4248C12.0853 17.5015 10.8993 19.0209 10.2814 20.7677C9.66345 22.5145 9.64486 24.4001 10.2283 26.1574C10.8116 27.9147 11.9674 29.4546 13.5319 30.5588C10.2567 31.7819 7.53093 34.0333 5.81618 36.9319H3.43137C3.30136 36.9319 3.17668 36.8832 3.08475 36.7967C2.99282 36.7101 2.94118 36.5927 2.94118 36.4702V3.23154C2.94118 3.1091 2.99282 2.99168 3.08475 2.9051C3.17668 2.81853 3.30136 2.76989 3.43137 2.76989H46.5686C46.6986 2.76989 46.8233 2.81853 46.9152 2.9051C47.0072 2.99168 47.0588 3.1091 47.0588 3.23154V36.4702ZM42.1569 8.77132V30.9304C42.1569 31.2978 42.0019 31.65 41.7261 31.9098C41.4503 32.1695 41.0763 32.3154 40.6863 32.3154H36.7647C36.3747 32.3154 36.0006 32.1695 35.7248 31.9098C35.4491 31.65 35.2941 31.2978 35.2941 30.9304C35.2941 30.5631 35.4491 30.2109 35.7248 29.9511C36.0006 29.6914 36.3747 29.5455 36.7647 29.5455H39.2157V10.1563H10.7843V12.4645C10.7843 12.8318 10.6294 13.1841 10.3536 13.4438C10.0778 13.7035 9.70375 13.8495 9.31373 13.8495C8.9237 13.8495 8.54965 13.7035 8.27386 13.4438C7.99807 13.1841 7.84314 12.8318 7.84314 12.4645V8.77132C7.84314 8.40401 7.99807 8.05175 8.27386 7.79202C8.54965 7.53229 8.9237 7.38638 9.31373 7.38638H40.6863C41.0763 7.38638 41.4503 7.53229 41.7261 7.79202C42.0019 8.05175 42.1569 8.40401 42.1569 8.77132Z" fill="#23ADB4"/>
</svg>
